<?xml version="1.0" encoding="UTF-8" standalone="no"?>
<svg
   xmlns:dc="http://purl.org/dc/elements/1.1/"
   xmlns:cc="http://creativecommons.org/ns#"
   xmlns:rdf="http://www.w3.org/1999/02/22-rdf-syntax-ns#"
   xmlns:svg="http://www.w3.org/2000/svg"
   xmlns="http://www.w3.org/2000/svg"
   viewBox="0 0 225 225"
   height="225"
   width="225"
   xml:space="preserve"
   version="1.1"
   id="svg2"><metadata
     id="metadata8"><rdf:RDF><cc:Work
         rdf:about=""><dc:format>image/svg+xml</dc:format><dc:type
           rdf:resource="http://purl.org/dc/dcmitype/StillImage" /></cc:Work></rdf:RDF></metadata><defs
     id="defs6"><clipPath
       id="clipPath18"
       clipPathUnits="userSpaceOnUse"><path
         id="path20"
         d="M 0,180 180,180 180,0 0,0 0,180 Z" /></clipPath></defs><g
     transform="matrix(1.25,0,0,-1.25,0,225)"
     id="g10"><path
       id="path12"
       style="fill:#091824;fill-opacity:1;fill-rule:nonzero;stroke:none"
       d="M 0,0 180,0 180,180 0,180 0,0 Z" /><g
       id="g14"><g
         clip-path="url(#clipPath18)"
         id="g16"><g
           transform="translate(119.1855,128.3726)"
           id="g22"><path
             id="path24"
             style="fill:#ffce00;fill-opacity:1;fill-rule:nonzero;stroke:none"
             d="m 0,0 -7.56,0 -15.104,-23.888 22.664,0 c 8.606,0 15.611,-7.003 15.611,-15.61 0,-8.606 -7.005,-15.609 -15.611,-15.609 l -22.664,0 15.104,-23.889 7.56,0 c 21.781,0 39.501,17.718 39.501,39.498 C 39.501,-17.72 21.781,0 0,0" /></g><g
           transform="translate(61.6777,104.4844)"
           id="g26"><path
             id="path28"
             style="fill:#00c0b3;fill-opacity:1;fill-rule:nonzero;stroke:none"
             d="M 0,0 22.664,0 7.559,23.888 0,23.888 c -21.781,0 -39.502,-17.718 -39.502,-39.497 0,-21.781 17.721,-39.498 39.502,-39.498 l 7.558,0 15.106,23.888 -22.664,0 c -8.608,0 -15.613,7.003 -15.613,15.61 C -15.613,-7.003 -8.608,0 0,0" /></g></g></g></g></svg>